<?xml version="1.0" encoding="UTF-8" standalone="no"?>
<!-- Created with Inkscape (http://www.inkscape.org/) -->

<svg
   xmlns:dc="http://purl.org/dc/elements/1.1/"
   xmlns:cc="http://creativecommons.org/ns#"
   xmlns:rdf="http://www.w3.org/1999/02/22-rdf-syntax-ns#"
   xmlns:svg="http://www.w3.org/2000/svg"
   xmlns="http://www.w3.org/2000/svg"
   xmlns:sodipodi="http://sodipodi.sourceforge.net/DTD/sodipodi-0.dtd"
   xmlns:inkscape="http://www.inkscape.org/namespaces/inkscape"
   width="740"
   height="420"
   viewBox="0 0 195.79166 111.125"
   version="1.1"
   id="svg8"
   inkscape:version="0.92.2 (5c3e80d, 2017-08-06)"
   sodipodi:docname="logo2.svg">
  <defs
     id="defs2" />
  <sodipodi:namedview
     id="base"
     pagecolor="#ffffff"
     bordercolor="#666666"
     borderopacity="1.0"
     inkscape:pageopacity="0.0"
     inkscape:pageshadow="2"
     inkscape:zoom="0.7"
     inkscape:cx="558.09205"
     inkscape:cy="197.79426"
     inkscape:document-units="mm"
     inkscape:current-layer="layer1"
     showgrid="false"
     showguides="false"
     inkscape:guide-bbox="true"
     inkscape:window-width="1297"
     inkscape:window-height="713"
     inkscape:window-x="69"
     inkscape:window-y="27"
     inkscape:window-maximized="1"
     units="px">
    <sodipodi:guide
       position="236.26626,250.16428"
       orientation="0,1"
       id="guide4595"
       inkscape:locked="false" />
  </sodipodi:namedview>
  <metadata
     id="metadata5">
    <rdf:RDF>
      <cc:Work
         rdf:about="">
        <dc:format>image/svg+xml</dc:format>
        <dc:type
           rdf:resource="http://purl.org/dc/dcmitype/StillImage" />
        <dc:title></dc:title>
      </cc:Work>
    </rdf:RDF>
  </metadata>
  <g
     inkscape:label="Camada 1"
     inkscape:groupmode="layer"
     id="layer1"
     transform="translate(0,-185.87498)">
    <g
       aria-label="MAPA DE MISTÉRIOS  DO RECIFE"
       transform="matrix(0.39036311,0,0,0.39036311,-30.793724,126.34074)"
       style="font-style:normal;font-variant:normal;font-weight:normal;font-stretch:normal;font-size:40px;line-height:1.25;font-family:Ani;-inkscape-font-specification:Ani;letter-spacing:0px;word-spacing:0px;fill:#9d8958;fill-opacity:1;stroke:none"
       id="flowRoot815">
      <path
         d="m 128.26409,239.76949 h -4.52667 v 29.16667 h 4.34 v 2.42667 h -13.3 v -2.42667 h 4.34 v -26.27333 l -11.66666,23.70666 h -3.22 L 92.564089,242.66283 v 26.27333 h 4.34 v 2.42667 h -11.48 v -2.42667 h 4.34 v -29.16667 h -4.573334 v -2.42666 h 9.893334 l 11.946671,24.22 11.94666,-24.22 h 9.28667 z"
         style="font-style:normal;font-variant:normal;font-weight:normal;font-stretch:normal;font-size:46.66666794px;line-height:0.69999999;font-family:'DejaVu Math TeX Gyre';-inkscape-font-specification:'DejaVu Math TeX Gyre, Normal';font-variant-ligatures:normal;font-variant-caps:normal;font-variant-numeric:normal;font-feature-settings:normal;text-align:start;writing-mode:lr-tb;text-anchor:start;fill:#9d8958;fill-opacity:1"
         id="path4651"
         inkscape:connector-curvature="0" />
      <path
         d="m 164.77784,271.36283 h -12.36667 v -2.42667 h 3.78 l -2.84666,-7.46667 h -14.32667 l -2.84667,7.46667 h 3.73334 v 2.42667 h -9.56667 v -2.42667 h 2.98667 l 12.13333,-31.59333 h 3.82667 l 12.13333,31.59333 h 3.36 z m -12.32,-12.32 -6.25333,-16.19334 -6.25334,16.19334 z"
         style="font-style:normal;font-variant:normal;font-weight:normal;font-stretch:normal;font-size:46.66666794px;line-height:0.69999999;font-family:'DejaVu Math TeX Gyre';-inkscape-font-specification:'DejaVu Math TeX Gyre, Normal';font-variant-ligatures:normal;font-variant-caps:normal;font-variant-numeric:normal;font-feature-settings:normal;text-align:start;writing-mode:lr-tb;text-anchor:start;fill:#9d8958;fill-opacity:1"
         id="path4653"
         inkscape:connector-curvature="0" />
      <path
         d="m 194.06846,246.90949 q 0,4.43334 -2.98666,7 -3.08,2.56667 -8.07334,2.56667 h -7.14 v 12.46 h 5.27334 v 2.42667 h -14.23334 v -2.42667 h 4.34 v -29.16667 h -4.34 v -2.42666 h 16.1 q 4.99334,0 8.07334,2.56666 2.98666,2.66 2.98666,7 z m -5.22666,0 q 0,-3.45333 -1.77334,-5.32 -1.72666,-1.82 -5.18,-1.82 h -6.02 v 14.28 h 6.02 q 3.45334,0 5.18,-1.82 1.77334,-1.91333 1.77334,-5.32 z"
         style="font-style:normal;font-variant:normal;font-weight:normal;font-stretch:normal;font-size:46.66666794px;line-height:0.69999999;font-family:'DejaVu Math TeX Gyre';-inkscape-font-specification:'DejaVu Math TeX Gyre, Normal';font-variant-ligatures:normal;font-variant-caps:normal;font-variant-numeric:normal;font-feature-settings:normal;text-align:start;writing-mode:lr-tb;text-anchor:start;fill:#9d8958;fill-opacity:1"
         id="path4655"
         inkscape:connector-curvature="0" />
      <path
         d="M 229.85597,271.36283 H 217.4893 v -2.42667 h 3.78 l -2.84666,-7.46667 h -14.32667 l -2.84667,7.46667 h 3.73334 v 2.42667 h -9.56667 v -2.42667 h 2.98667 l 12.13333,-31.59333 h 3.82667 l 12.13333,31.59333 h 3.36 z m -12.32,-12.32 -6.25333,-16.19334 -6.25334,16.19334 z"
         style="font-style:normal;font-variant:normal;font-weight:normal;font-stretch:normal;font-size:46.66666794px;line-height:0.69999999;font-family:'DejaVu Math TeX Gyre';-inkscape-font-specification:'DejaVu Math TeX Gyre, Normal';font-variant-ligatures:normal;font-variant-caps:normal;font-variant-numeric:normal;font-feature-settings:normal;text-align:start;writing-mode:lr-tb;text-anchor:start;fill:#9d8958;fill-opacity:1"
         id="path4657"
         inkscape:connector-curvature="0" />
      <path
         d="m 273.95888,241.82283 q 4.94667,4.48 4.94667,12.50666 0,8.02667 -4.94667,12.55334 -4.9,4.48 -13.67333,4.48 h -13.53334 v -2.42667 h 4.34 v -29.16667 h -4.34 v -2.42666 h 13.53334 q 8.77333,0 13.67333,4.48 z m -3.82667,23.33333 q 3.54667,-3.73333 3.54667,-10.82667 0,-7.09333 -3.54667,-10.78 -3.54666,-3.78 -10.17333,-3.78 h -4.24667 v 29.16667 h 4.24667 q 6.62667,0 10.17333,-3.78 z"
         style="font-style:normal;font-variant:normal;font-weight:normal;font-stretch:normal;font-size:46.66666794px;line-height:0.69999999;font-family:'DejaVu Math TeX Gyre';-inkscape-font-specification:'DejaVu Math TeX Gyre, Normal';font-variant-ligatures:normal;font-variant-caps:normal;font-variant-numeric:normal;font-feature-settings:normal;text-align:start;writing-mode:lr-tb;text-anchor:start;fill:#9d8958;fill-opacity:1"
         id="path4659"
         inkscape:connector-curvature="0" />
      <path
         d="m 311.88868,271.36283 h -27.76667 v -2.42667 h 4.34 v -29.16667 h -4.34 v -2.42666 h 27.39333 v 7.56 h -2.8 v -4.76 h -15.63333 v 11.38666 h 11.15333 v -4.24666 h 2.8 v 11.29333 h -2.8 v -4.24667 h -11.15333 v 14.23334 h 16.00667 v -4.76 h 2.8 z"
         style="font-style:normal;font-variant:normal;font-weight:normal;font-stretch:normal;font-size:46.66666794px;line-height:0.69999999;font-family:'DejaVu Math TeX Gyre';-inkscape-font-specification:'DejaVu Math TeX Gyre, Normal';font-variant-ligatures:normal;font-variant-caps:normal;font-variant-numeric:normal;font-feature-settings:normal;text-align:start;writing-mode:lr-tb;text-anchor:start;fill:#9d8958;fill-opacity:1"
         id="path4661"
         inkscape:connector-curvature="0" />
      <path
         d="m 160.69742,284.00469 h -7.76 v 50 h 7.44 v 4.16 h -22.8 v -4.16 h 7.44 v -45.04 l -20,40.64 h -5.52 l -19.999998,-40.64 v 45.04 h 7.439998 v 4.16 H 87.257422 v -4.16 h 7.44 v -50 h -7.84 v -4.16 h 16.959998 l 20.48,41.52 20.48,-41.52 h 15.92 z"
         style="font-style:normal;font-variant:normal;font-weight:normal;font-stretch:normal;font-size:80px;line-height:0.69999999;font-family:'DejaVu Math TeX Gyre';-inkscape-font-specification:'DejaVu Math TeX Gyre, Normal';font-variant-ligatures:normal;font-variant-caps:normal;font-variant-numeric:normal;font-feature-settings:normal;text-align:start;writing-mode:lr-tb;text-anchor:start;fill:#9d8958;fill-opacity:1"
         id="path4663"
         inkscape:connector-curvature="0" />
      <path
         d="m 191.93242,338.16469 h -22.8 v -4.16 h 7.44 v -50 h -7.44 v -4.16 h 22.8 v 4.16 h -7.44 v 50 h 7.44 z"
         style="font-style:normal;font-variant:normal;font-weight:normal;font-stretch:normal;font-size:80px;line-height:0.69999999;font-family:'DejaVu Math TeX Gyre';-inkscape-font-specification:'DejaVu Math TeX Gyre, Normal';font-variant-ligatures:normal;font-variant-caps:normal;font-variant-numeric:normal;font-feature-settings:normal;text-align:start;writing-mode:lr-tb;text-anchor:start;fill:#9d8958;fill-opacity:1"
         id="path4665"
         inkscape:connector-curvature="0" />
      <path
         d="m 245.25492,322.24469 q 0,8.48 -5.44,12.72 -5.44,4.32 -16.16,4.32 -4.8,0 -9.76,-0.96 -5.12,-0.96 -10.16,-2.96 v -13.28 h 4.48 q 0.08,6.64 3.84,9.84 3.68,3.2 11.12,3.2 6.88,0 10.56,-2.72 3.68,-2.88 3.68,-8.08 0,-4.24 -2.24,-6.48 -2.08,-2.24 -9.28,-4.4 l -7.68,-2.32 q -8.16,-2.48 -11.76,-6.32 -3.44,-3.68 -3.44,-10.4 0,-7.44 5.28,-11.52 5.28,-4.08 14.8,-4.08 3.84,0 8.88,0.88 4.64,0.8 10.32,2.56 v 12.4 h -4.4 q -0.56,-6 -4.16,-8.96 -3.44,-2.72 -10.48,-2.72 -6.32,0 -9.36,2.56 -3.28,2.32 -3.28,7.28 0,4.16 2.48,6.56 2.48,2.48 10.24,4.72 l 7.2,2.16 q 7.92,2.4 11.36,6.08 3.36,3.68 3.36,9.92 z"
         style="font-style:normal;font-variant:normal;font-weight:normal;font-stretch:normal;font-size:80px;line-height:0.69999999;font-family:'DejaVu Math TeX Gyre';-inkscape-font-specification:'DejaVu Math TeX Gyre, Normal';font-variant-ligatures:normal;font-variant-caps:normal;font-variant-numeric:normal;font-feature-settings:normal;text-align:start;writing-mode:lr-tb;text-anchor:start;fill:#9d8958;fill-opacity:1"
         id="path4667"
         inkscape:connector-curvature="0" />
      <path
         d="m 303.69867,293.60469 h -4.8 v -9.12 h -17.12 v 49.52 h 7.44 v 4.16 h -22.8 v -4.16 h 7.44 v -49.52 h -17.12 v 9.12 h -4.8 v -13.76 h 51.76 z"
         style="font-style:normal;font-variant:normal;font-weight:normal;font-stretch:normal;font-size:80px;line-height:0.69999999;font-family:'DejaVu Math TeX Gyre';-inkscape-font-specification:'DejaVu Math TeX Gyre, Normal';font-variant-ligatures:normal;font-variant-caps:normal;font-variant-numeric:normal;font-feature-settings:normal;text-align:start;writing-mode:lr-tb;text-anchor:start;fill:#9d8958;fill-opacity:1"
         id="path4669"
         inkscape:connector-curvature="0" />
      <path
         d="m 343.77992,264.00469 -10.24,10.32 h -4.56 l 7.12,-10.32 z m 12.64,74.16 h -47.6 v -4.16 h 7.44 v -50 h -7.44 v -4.16 h 46.96 v 12.96 h -4.8 v -8.16 h -26.8 v 19.52 h 19.12 v -7.28 h 4.8 v 19.36 h -4.8 v -7.28 h -19.12 v 24.4 h 27.44 v -8.16 h 4.8 z"
         style="font-style:normal;font-variant:normal;font-weight:normal;font-stretch:normal;font-size:80px;line-height:0.69999999;font-family:'DejaVu Math TeX Gyre';-inkscape-font-specification:'DejaVu Math TeX Gyre, Normal';font-variant-ligatures:normal;font-variant-caps:normal;font-variant-numeric:normal;font-feature-settings:normal;text-align:start;writing-mode:lr-tb;text-anchor:start;fill:#9d8958;fill-opacity:1"
         id="path4671"
         inkscape:connector-curvature="0" />
      <path
         d="m 402.70117,304.08469 q 2.8,-2.8 2.8,-8.64 0,-5.84 -2.8,-8.64 -2.8,-2.8 -8.72,-2.8 h -11.52 v 22.88 h 11.52 q 5.92,0 8.72,-2.8 z m 22.16,34.08 h -13.76 l -9.12,-18.56 q -2.64,-5.44 -4.8,-6.96 -2.24,-1.6 -6,-1.6 h -8.72 v 22.96 h 8.24 v 4.16 h -23.6 v -4.16 h 7.44 v -50 h -7.44 v -4.16 h 29.6 q 8.4,0 13.12,4.08 4.64,4.08 4.64,11.52 0,6 -3.44,9.44 -3.36,3.44 -10,4.32 2.8,0.72 4.72,2.56 2.08,1.92 3.52,4.96 l 8.48,17.28 h 7.12 z"
         style="font-style:normal;font-variant:normal;font-weight:normal;font-stretch:normal;font-size:80px;line-height:0.69999999;font-family:'DejaVu Math TeX Gyre';-inkscape-font-specification:'DejaVu Math TeX Gyre, Normal';font-variant-ligatures:normal;font-variant-caps:normal;font-variant-numeric:normal;font-feature-settings:normal;text-align:start;writing-mode:lr-tb;text-anchor:start;fill:#9d8958;fill-opacity:1"
         id="path4673"
         inkscape:connector-curvature="0" />
      <path
         d="m 450.05742,338.16469 h -22.8 v -4.16 h 7.44 v -50 h -7.44 v -4.16 h 22.8 v 4.16 h -7.44 v 50 h 7.44 z"
         style="font-style:normal;font-variant:normal;font-weight:normal;font-stretch:normal;font-size:80px;line-height:0.69999999;font-family:'DejaVu Math TeX Gyre';-inkscape-font-specification:'DejaVu Math TeX Gyre, Normal';font-variant-ligatures:normal;font-variant-caps:normal;font-variant-numeric:normal;font-feature-settings:normal;text-align:start;writing-mode:lr-tb;text-anchor:start;fill:#9d8958;fill-opacity:1"
         id="path4675"
         inkscape:connector-curvature="0" />
      <path
         d="m 515.53992,309.04469 q 0,6.88 -2.16,12.64 -2.24,5.68 -6.48,9.92 -3.92,3.92 -8.8,5.76 -4.8,1.92 -10.88,1.92 -5.92,0 -10.88,-1.92 -5.12,-2.08 -8.8,-5.76 -4.4,-4.4 -6.56,-9.92 -2.08,-5.6 -2.08,-12.64 0,-6.88 2.08,-12.64 2.16,-5.52 6.56,-9.92 3.92,-3.92 8.8,-5.76 4.8,-1.92 10.88,-1.92 12.8,0 20.48,8.32 7.84,8.16 7.84,21.92 z m -8.96,0 q 0,-12.96 -4.88,-19.52 -4.88,-6.56 -14.48,-6.56 -9.52,0 -14.48,6.56 -4.88,6.64 -4.88,19.52 0,12.88 4.88,19.52 4.96,6.56 14.48,6.56 9.52,0 14.48,-6.56 4.88,-6.64 4.88,-19.52 z"
         style="font-style:normal;font-variant:normal;font-weight:normal;font-stretch:normal;font-size:80px;line-height:0.69999999;font-family:'DejaVu Math TeX Gyre';-inkscape-font-specification:'DejaVu Math TeX Gyre, Normal';font-variant-ligatures:normal;font-variant-caps:normal;font-variant-numeric:normal;font-feature-settings:normal;text-align:start;writing-mode:lr-tb;text-anchor:start;fill:#9d8958;fill-opacity:1"
         id="path4677"
         inkscape:connector-curvature="0" />
      <path
         d="m 568.84867,322.24469 q 0,8.48 -5.44,12.72 -5.44,4.32 -16.16,4.32 -4.8,0 -9.76,-0.96 -5.12,-0.96 -10.16,-2.96 v -13.28 h 4.48 q 0.08,6.64 3.84,9.84 3.68,3.2 11.12,3.2 6.88,0 10.56,-2.72 3.68,-2.88 3.68,-8.08 0,-4.24 -2.24,-6.48 -2.08,-2.24 -9.28,-4.4 l -7.68,-2.32 q -8.16,-2.48 -11.76,-6.32 -3.44,-3.68 -3.44,-10.4 0,-7.44 5.28,-11.52 5.28,-4.08 14.8,-4.08 3.84,0 8.88,0.88 4.64,0.8 10.32,2.56 v 12.4 h -4.4 q -0.56,-6 -4.16,-8.96 -3.44,-2.72 -10.48,-2.72 -6.32,0 -9.36,2.56 -3.28,2.32 -3.28,7.28 0,4.16 2.48,6.56 2.48,2.48 10.24,4.72 l 7.2,2.16 q 7.92,2.4 11.36,6.08 3.36,3.68 3.36,9.92 z"
         style="font-style:normal;font-variant:normal;font-weight:normal;font-stretch:normal;font-size:80px;line-height:0.69999999;font-family:'DejaVu Math TeX Gyre';-inkscape-font-specification:'DejaVu Math TeX Gyre, Normal';font-variant-ligatures:normal;font-variant-caps:normal;font-variant-numeric:normal;font-feature-settings:normal;text-align:start;writing-mode:lr-tb;text-anchor:start;fill:#9d8958;fill-opacity:1"
         id="path4679"
         inkscape:connector-curvature="0" />
      <path
         d="m 193.2993,379.64654 q 4.24,3.84 4.24,10.72 0,6.88 -4.24,10.76 -4.2,3.84 -11.72,3.84 h -11.6 v -2.08 h 3.72 v -25 h -3.72 v -2.08 h 11.6 q 7.52,0 11.72,3.84 z m -3.28,20 q 3.04,-3.2 3.04,-9.28 0,-6.08 -3.04,-9.24 -3.04,-3.24 -8.72,-3.24 h -3.64 v 25 h 3.64 q 5.68,0 8.72,-3.24 z"
         style="font-size:40px;line-height:0.69999999;text-align:end;text-anchor:end;fill:#9d8958;fill-opacity:1"
         id="path4681"
         inkscape:connector-curvature="0" />
      <path
         d="m 230.37055,390.40654 q 0,3.44 -1.08,6.32 -1.12,2.84 -3.24,4.96 -1.96,1.96 -4.4,2.88 -2.4,0.96 -5.44,0.96 -2.96,0 -5.44,-0.96 -2.56,-1.04 -4.4,-2.88 -2.2,-2.2 -3.28,-4.96 -1.04,-2.8 -1.04,-6.32 0,-3.44 1.04,-6.32 1.08,-2.76 3.28,-4.96 1.96,-1.96 4.4,-2.88 2.4,-0.96 5.44,-0.96 6.4,0 10.24,4.16 3.92,4.08 3.92,10.96 z m -4.48,0 q 0,-6.48 -2.44,-9.76 -2.44,-3.28 -7.24,-3.28 -4.76,0 -7.24,3.28 -2.44,3.32 -2.44,9.76 0,6.44 2.44,9.76 2.48,3.28 7.24,3.28 4.76,0 7.24,-3.28 2.44,-3.32 2.44,-9.76 z"
         style="font-size:40px;line-height:0.69999999;text-align:end;text-anchor:end;fill:#9d8958;fill-opacity:1"
         id="path4683"
         inkscape:connector-curvature="0" />
      <path
         d="m 297.85742,370.88654 q 2.8,-2.8 2.8,-8.64 0,-5.84 -2.8,-8.64 -2.8,-2.8 -8.72,-2.8 h -11.52 v 22.88 h 11.52 q 5.92,0 8.72,-2.8 z m 22.16,34.08 h -13.76 l -9.12,-18.56 q -2.64,-5.44 -4.8,-6.96 -2.24,-1.6 -6,-1.6 h -8.72 v 22.96 h 8.24 v 4.16 h -23.6 v -4.16 h 7.44 v -50 h -7.44 v -4.16 h 29.6 q 8.4,0 13.12,4.08 4.64,4.08 4.64,11.52 0,6 -3.44,9.44 -3.36,3.44 -10,4.32 2.8,0.72 4.72,2.56 2.08,1.92 3.52,4.96 l 8.48,17.28 h 7.12 z"
         style="font-style:normal;font-variant:normal;font-weight:normal;font-stretch:normal;font-size:80px;line-height:0.69999999;font-family:'DejaVu Math TeX Gyre';-inkscape-font-specification:'DejaVu Math TeX Gyre, Normal';font-variant-ligatures:normal;font-variant-caps:normal;font-variant-numeric:normal;font-feature-settings:normal;text-align:end;writing-mode:lr-tb;text-anchor:end;fill:#9d8958;fill-opacity:1"
         id="path4685"
         inkscape:connector-curvature="0" />
      <path
         d="m 370.01367,404.96654 h -47.6 v -4.16 h 7.44 v -50 h -7.44 v -4.16 h 46.96 v 12.96 h -4.8 v -8.16 h -26.8 v 19.52 h 19.12 v -7.28 h 4.8 v 19.36 h -4.8 v -7.28 h -19.12 v 24.4 h 27.44 v -8.16 h 4.8 z"
         style="font-style:normal;font-variant:normal;font-weight:normal;font-stretch:normal;font-size:80px;line-height:0.69999999;font-family:'DejaVu Math TeX Gyre';-inkscape-font-specification:'DejaVu Math TeX Gyre, Normal';font-variant-ligatures:normal;font-variant-caps:normal;font-variant-numeric:normal;font-feature-settings:normal;text-align:end;writing-mode:lr-tb;text-anchor:end;fill:#9d8958;fill-opacity:1"
         id="path4687"
         inkscape:connector-curvature="0" />
      <path
         d="m 432.69492,389.52654 q -2.48,8.08 -8.64,12.4 -6.24,4.16 -15.36,4.16 -5.6,0 -10.64,-1.92 -5.04,-2.16 -8.64,-5.76 -4.4,-4.4 -6.56,-9.92 -2.08,-5.76 -2.08,-12.64 0,-13.6 7.84,-21.92 7.84,-8.32 20.72,-8.32 4.96,0 10.16,1.28 5.12,1.12 11.6,3.76 v 13.44 h -4.4 q -1.44,-7.44 -5.76,-10.8 -4.32,-3.52 -12.24,-3.52 -9.36,0 -14.16,6.64 -4.8,6.64 -4.8,19.44 0,12.8 4.8,19.44 4.8,6.64 14.16,6.64 6.48,0 10.8,-3.12 4.24,-3.2 6,-9.28 z"
         style="font-style:normal;font-variant:normal;font-weight:normal;font-stretch:normal;font-size:80px;line-height:0.69999999;font-family:'DejaVu Math TeX Gyre';-inkscape-font-specification:'DejaVu Math TeX Gyre, Normal';font-variant-ligatures:normal;font-variant-caps:normal;font-variant-numeric:normal;font-feature-settings:normal;text-align:end;writing-mode:lr-tb;text-anchor:end;fill:#9d8958;fill-opacity:1"
         id="path4689"
         inkscape:connector-curvature="0" />
      <path
         d="m 464.74492,404.96654 h -22.8 v -4.16 h 7.44 v -50 h -7.44 v -4.16 h 22.8 v 4.16 h -7.44 v 50 h 7.44 z"
         style="font-style:normal;font-variant:normal;font-weight:normal;font-stretch:normal;font-size:80px;line-height:0.69999999;font-family:'DejaVu Math TeX Gyre';-inkscape-font-specification:'DejaVu Math TeX Gyre, Normal';font-variant-ligatures:normal;font-variant-caps:normal;font-variant-numeric:normal;font-feature-settings:normal;text-align:end;writing-mode:lr-tb;text-anchor:end;fill:#9d8958;fill-opacity:1"
         id="path4691"
         inkscape:connector-curvature="0" />
      <path
         d="m 521.26742,359.60654 h -4.8 v -8.16 h -27.6 v 19.52 h 19.92 v -7.28 h 4.8 v 19.36 h -4.8 v -7.28 h -19.92 v 25.04 h 9.36 v 4.16 h -24.72 v -4.16 h 7.44 v -50 h -7.44 v -4.16 h 47.76 z"
         style="font-style:normal;font-variant:normal;font-weight:normal;font-stretch:normal;font-size:80px;line-height:0.69999999;font-family:'DejaVu Math TeX Gyre';-inkscape-font-specification:'DejaVu Math TeX Gyre, Normal';font-variant-ligatures:normal;font-variant-caps:normal;font-variant-numeric:normal;font-feature-settings:normal;text-align:end;writing-mode:lr-tb;text-anchor:end;fill:#9d8958;fill-opacity:1"
         id="path4693"
         inkscape:connector-curvature="0" />
      <path
         d="m 576.57617,404.96654 h -47.6 v -4.16 h 7.44 v -50 h -7.44 v -4.16 h 46.96 v 12.96 h -4.8 v -8.16 h -26.8 v 19.52 h 19.12 v -7.28 h 4.8 v 19.36 h -4.8 v -7.28 h -19.12 v 24.4 h 27.44 v -8.16 h 4.8 z"
         style="font-style:normal;font-variant:normal;font-weight:normal;font-stretch:normal;font-size:80px;line-height:0.69999999;font-family:'DejaVu Math TeX Gyre';-inkscape-font-specification:'DejaVu Math TeX Gyre, Normal';font-variant-ligatures:normal;font-variant-caps:normal;font-variant-numeric:normal;font-feature-settings:normal;text-align:end;writing-mode:lr-tb;text-anchor:end;fill:#9d8958;fill-opacity:1"
         id="path4695"
         inkscape:connector-curvature="0" />
    </g>
    <rect
       style="opacity:1;fill:#9d8958;fill-opacity:1;stroke:none;stroke-width:0.630238;stroke-linecap:round;stroke-linejoin:bevel;stroke-miterlimit:4;stroke-dasharray:none;stroke-opacity:1;paint-order:fill markers stroke"
       id="rect839"
       width="192.43124"
       height="5.6080394"
       x="1.9353526"
       y="206.82123" />
    <path
       style="opacity:1;fill:#9d8958;fill-opacity:1;stroke:none;stroke-width:2.90429878;stroke-linecap:round;stroke-linejoin:bevel;stroke-miterlimit:4;stroke-dasharray:none;stroke-opacity:1;paint-order:fill markers stroke"
       d="M 235.26172 12.111328 C 235.26172 12.111328 235.78266 53.195607 180.18164 73.21875 L 321.39648 73.21875 L 321.39648 73.318359 L 561.74609 73.318359 C 506.14509 53.295331 506.66406 12.208984 506.66406 12.208984 L 420.5293 12.208984 L 420.5293 12.111328 L 235.26172 12.111328 z M 372.75 16.357422 C 375.86364 16.346304 379.06121 16.690831 382.31641 17.480469 C 392.73312 20.007385 403.47345 27.05741 413.63086 40.59375 L 415.69727 43.347656 L 412.98828 45.480469 C 389.68145 63.811669 367.76767 63.638682 352.19922 58.560547 C 336.63077 53.482449 326.98242 43.664062 326.98242 43.664062 L 327.56641 43.087891 L 326.23047 42.033203 C 326.23047 42.033203 337.21175 28.008313 353.77148 20.654297 C 357.91142 18.815783 362.44361 17.391775 367.24414 16.742188 C 369.04434 16.498592 370.88182 16.364093 372.75 16.357422 z M 372.74219 23.396484 C 371.19099 23.401071 369.65882 23.513167 368.15039 23.71875 C 364.12792 24.266933 360.26697 25.483975 356.62891 27.099609 C 346.53074 31.584094 340.01612 37.771851 336.02539 41.980469 C 339.58769 44.872261 345.17368 48.852924 354.38477 51.857422 C 367.48643 56.130896 385.06876 56.367931 405.23828 42.033203 C 396.75774 31.863137 388.4095 26.212838 380.65625 24.332031 C 377.96886 23.680134 375.32752 23.38884 372.74219 23.396484 z M 370.96289 27.576172 A 10.859139 11.111678 0 0 1 381.82227 38.6875 A 10.859139 11.111678 0 0 1 370.96289 49.798828 A 10.859139 11.111678 0 0 1 360.10547 38.6875 A 10.859139 11.111678 0 0 1 370.96289 27.576172 z "
       transform="matrix(0.26458333,0,0,0.26458333,0,185.87498)"
       id="rect845" />
    <path
       style="opacity:1;fill:#9d8958;fill-opacity:1;stroke:none;stroke-width:0.79818499;stroke-linecap:round;stroke-linejoin:bevel;stroke-miterlimit:4;stroke-dasharray:none;stroke-opacity:1;paint-order:fill markers stroke"
       d="m 1.9353524,187.42839 h 3.9432668 l 3.9987257,4.39744 v 13.44774 H 1.9353524 Z"
       id="rect4565"
       inkscape:connector-curvature="0"
       sodipodi:nodetypes="cccccc" />
    <path
       sodipodi:nodetypes="cccccc"
       inkscape:connector-curvature="0"
       id="path4568"
       d="m 194.37538,187.42839 h -3.94326 l -3.99873,4.39744 v 13.44774 h 7.94199 z"
       style="opacity:1;fill:#9d8958;fill-opacity:1;stroke:none;stroke-width:0.79818499;stroke-linecap:round;stroke-linejoin:bevel;stroke-miterlimit:4;stroke-dasharray:none;stroke-opacity:1;paint-order:fill markers stroke" />
    <rect
       y="289.57828"
       x="1.9353526"
       height="3.3773932"
       width="192.43124"
       id="rect4572"
       style="opacity:1;fill:#9d8958;fill-opacity:1;stroke:none;stroke-width:0.48909122;stroke-linecap:round;stroke-linejoin:bevel;stroke-miterlimit:4;stroke-dasharray:none;stroke-opacity:1;paint-order:fill markers stroke" />
    <rect
       style="opacity:1;fill:#9d8958;fill-opacity:1;stroke:none;stroke-width:0.34744483;stroke-linecap:round;stroke-linejoin:bevel;stroke-miterlimit:4;stroke-dasharray:none;stroke-opacity:1;paint-order:fill markers stroke"
       id="rect4574"
       width="192.43124"
       height="1.7044084"
       x="1.9353526"
       y="294.26263" />
  </g>
  <g
     inkscape:groupmode="layer"
     id="layer2"
     inkscape:label="Camada 2"
     style="display:none"
     transform="translate(0,-185.87498)">
    <flowRoot
       transform="matrix(0.3903631,0,0,0.3903631,-24.513231,-10.847241)"
       style="font-style:normal;font-variant:normal;font-weight:normal;font-stretch:normal;font-size:40px;line-height:1.25;font-family:Ani;-inkscape-font-specification:Ani;letter-spacing:0px;word-spacing:0px;fill:#000000;fill-opacity:1;stroke:none"
       id="flowRoot4615"
       xml:space="preserve"><flowRegion
         style="fill:#000000"
         id="flowRegion4605"><rect
           style="fill:#000000"
           y="236.8054"
           x="82.85714"
           height="362.85712"
           width="499.99997"
           id="rect4603" /></flowRegion><flowPara
         style="font-style:normal;font-variant:normal;font-weight:normal;font-stretch:normal;font-size:46.66666794px;line-height:0.69999999;font-family:'DejaVu Math TeX Gyre';-inkscape-font-specification:'DejaVu Math TeX Gyre, Normal';font-variant-ligatures:normal;font-variant-caps:normal;font-variant-numeric:normal;font-feature-settings:normal;text-align:start;writing-mode:lr-tb;text-anchor:start;fill:#000000"
         id="flowPara4607">MAPA DE</flowPara><flowPara
         style="font-style:normal;font-variant:normal;font-weight:normal;font-stretch:normal;font-size:80px;line-height:0.69999999;font-family:'DejaVu Math TeX Gyre';-inkscape-font-specification:'DejaVu Math TeX Gyre, Normal';font-variant-ligatures:normal;font-variant-caps:normal;font-variant-numeric:normal;font-feature-settings:normal;text-align:start;writing-mode:lr-tb;text-anchor:start;fill:#000000"
         id="flowPara4609">MISTÉRIOS </flowPara><flowPara
         style="font-style:normal;font-variant:normal;font-weight:normal;font-stretch:normal;font-size:80px;line-height:0.69999999;font-family:'DejaVu Math TeX Gyre';-inkscape-font-specification:'DejaVu Math TeX Gyre, Normal';font-variant-ligatures:normal;font-variant-caps:normal;font-variant-numeric:normal;font-feature-settings:normal;text-align:end;writing-mode:lr-tb;text-anchor:end;fill:#000000"
         id="flowPara4613"><flowSpan
   id="flowSpan4611"
   style="font-size:40px;line-height:0.69999999;text-align:end;text-anchor:end;fill:#000000">DO</flowSpan> RECIFE</flowPara></flowRoot>  </g>
</svg>
